<svg width="41" height="40" viewBox="0 0 41 40" fill="none" xmlns="http://www.w3.org/2000/svg">
<mask id="path-1-inside-1_330_2212" fill="white">
<path fill-rule="evenodd" clip-rule="evenodd" d="M20.5002 3.33563C20.0368 3.33563 19.5721 3.51061 19.2248 3.85821C18.5298 4.55314 18.5298 5.71203 19.2248 6.40696C19.2579 6.43799 19.2967 6.4638 19.332 6.49353V8.88474C17.1246 9.11343 15.1078 9.99063 13.4702 11.3193L11.7794 9.62847C11.7827 9.5818 11.7953 9.5372 11.7953 9.48949C11.7953 8.50663 10.9663 7.6868 9.9837 7.6868C9.00085 7.6868 8.18102 8.50663 8.18102 9.48949C8.18102 10.4723 9.00085 11.2898 9.9837 11.2898C10.0296 11.2898 10.0731 11.281 10.1183 11.2765L11.8182 12.9718C10.4886 14.6107 9.61111 16.629 9.38134 18.838H6.99921C6.96739 18.7984 6.94106 18.7595 6.9056 18.7241C6.21066 18.0291 5.05177 18.0291 4.35684 18.7241C3.66191 19.419 3.65744 20.5846 4.35215 21.2796C5.04708 21.9745 6.21037 21.9677 6.90531 21.2707C6.93582 21.2397 6.9572 21.205 6.9851 21.1726H9.38078C9.61234 23.3767 10.4909 25.3916 11.8176 27.0276L10.1177 28.7229C10.0726 28.7192 10.029 28.7096 9.98315 28.7096C9.0003 28.7096 8.18046 29.5294 8.18046 30.512C8.18046 31.4949 9.0003 32.3236 9.98315 32.3236C10.966 32.3236 11.7947 31.4946 11.7947 30.512C11.7947 30.4648 11.7825 30.4192 11.7788 30.373L13.4719 28.6799C15.1093 30.008 17.1245 30.8883 19.3313 31.1168V33.5036C19.2961 33.5346 19.2573 33.557 19.2242 33.5901C18.5292 34.2851 18.5224 35.4507 19.2171 36.1456C19.912 36.8406 21.0845 36.8406 21.7794 36.1456C22.4744 35.4507 22.4676 34.2851 21.7724 33.5901C21.74 33.5591 21.7017 33.5349 21.6676 33.5059V31.1124C23.871 30.8792 25.8852 30.0002 27.5202 28.6708L29.2201 30.3731C29.2168 30.4198 29.2066 30.4649 29.2066 30.5121C29.2066 31.4949 30.0332 32.3237 31.016 32.3237C31.9988 32.3237 32.8187 31.4947 32.8187 30.5121C32.8187 29.5292 31.9989 28.7094 31.016 28.7094C30.9686 28.7094 30.9234 28.7183 30.8768 28.7227L29.1701 27.016C30.4932 25.3823 31.3689 23.3715 31.6001 21.1725H34.0096C34.0381 21.2035 34.0605 21.2419 34.0918 21.2726C34.7867 21.9676 35.95 21.9721 36.6449 21.2771C37.3399 20.5822 37.3355 19.4165 36.6402 18.7216C35.9453 18.0267 34.7864 18.0267 34.0915 18.7216C34.056 18.7568 34.0297 18.798 33.9979 18.8355L31.6001 18.8361C31.3707 16.6323 30.4961 14.6179 29.1701 12.9811L30.8768 11.2744C30.9234 11.2778 30.9686 11.2877 31.016 11.2877C31.9989 11.2877 32.8187 10.4702 32.8187 9.48734C32.8187 8.50449 31.9989 7.68465 31.016 7.68465C30.0332 7.68465 29.2066 8.50449 29.2066 9.48734C29.2066 9.53506 29.216 9.57965 29.2201 9.62632L27.5202 11.3263C25.8852 9.99689 23.871 9.12045 21.6675 8.88707V6.48905C21.7017 6.45802 21.74 6.4369 21.7724 6.40482C22.4673 5.70989 22.4673 4.551 21.7724 3.85607C21.425 3.50847 20.9627 3.3335 20.4993 3.3335L20.5002 3.33563ZM20.4683 11.1615V11.1617C20.4902 11.163 20.5124 11.1638 20.5343 11.1641C22.859 11.1774 24.9621 12.0828 26.5306 13.5529C26.6318 13.7256 26.7755 13.8695 26.9484 13.9707C28.3575 15.4805 29.2384 17.4848 29.3122 19.7023C29.259 19.9002 29.259 20.1088 29.3122 20.307C29.2361 22.5462 28.3374 24.5659 26.9027 26.0799V26.0796C26.7731 26.1657 26.6623 26.2765 26.5762 26.4059C25.0268 27.8786 22.9443 28.7945 20.6393 28.8336C20.5864 28.8258 20.5329 28.8213 20.4795 28.8205C20.4359 28.8224 20.3927 28.8268 20.3496 28.8336C18.0309 28.7984 15.94 27.8766 14.3875 26.392V26.3923C14.3127 26.2875 14.2209 26.1957 14.116 26.1208C12.595 24.5338 11.6562 22.383 11.6562 20.0014C11.6562 17.6553 12.5686 15.5324 14.0498 13.9527V13.9525C14.2156 13.8534 14.3543 13.7144 14.4537 13.5485C16.0264 12.075 18.1342 11.1667 20.4683 11.1617L20.4683 11.1615ZM19.987 12.1174V12.1177C19.7773 12.1172 19.5713 12.173 19.3906 12.2793C19.2099 12.3857 19.0612 12.5388 18.9601 12.7224L18.3736 13.731V13.7307C18.2187 13.9999 18.1773 14.3196 18.2581 14.6192C18.3389 14.9188 18.5358 15.1741 18.8052 15.3285C19.0743 15.4831 19.394 15.5241 19.6936 15.4427C19.9933 15.3613 20.248 15.1642 20.4021 14.8946L20.9886 13.8862C21.1307 13.6487 21.1839 13.3686 21.1388 13.0956C21.0937 12.8225 20.9531 12.5746 20.7422 12.3954C20.5312 12.2163 20.2636 12.118 19.987 12.1177L19.987 12.1174ZM24.2309 13.8698L24.2307 13.87C23.9005 13.8698 23.5855 14.0093 23.3639 14.2541C23.142 14.4987 23.0343 14.826 23.0672 15.1545L23.1608 16.3184C23.1871 16.6274 23.335 16.9132 23.572 17.1129C23.8093 17.3129 24.116 17.4104 24.4249 17.3841C24.734 17.3578 25.0198 17.2096 25.2195 16.9726C25.4192 16.7353 25.5167 16.4286 25.4904 16.1197L25.3947 14.9558H25.3944C25.3736 14.6614 25.2422 14.3855 25.0262 14.1842C24.8103 13.9826 24.5261 13.8705 24.2309 13.87L24.2309 13.8698ZM14.5453 15.7567V15.757C14.1346 15.7862 13.7695 16.0289 13.5838 16.3961C13.3982 16.7635 13.419 17.2013 13.6391 17.5492C13.859 17.897 14.2457 18.1038 14.6569 18.0934H15.8321C16.2431 18.0843 16.6191 17.8595 16.822 17.502C17.0249 17.1442 17.0249 16.7064 16.822 16.3486C16.6191 15.9911 16.2431 15.7663 15.8321 15.7569H14.6569C14.6199 15.7554 14.5826 15.7554 14.5453 15.7569L14.5453 15.7567ZM27.024 17.8444L27.0237 17.8449C26.642 17.8655 26.2941 18.0715 26.0928 18.3969L25.4631 19.3873H25.4633C25.2962 19.6494 25.2401 19.967 25.3079 20.2705C25.3755 20.5738 25.5611 20.8377 25.8237 21.0038C26.0866 21.1701 26.4045 21.2249 26.7074 21.156C27.0107 21.0872 27.2738 20.9007 27.4392 20.6376L28.0689 19.6475V19.6472C28.2262 19.4047 28.2882 19.1124 28.2426 18.8271C28.197 18.5416 28.047 18.2832 27.822 18.1017C27.5969 17.9202 27.3124 17.8287 27.0238 17.8448L27.024 17.8444ZM20.2816 18.319L20.2814 18.3195C19.9539 18.3117 19.6381 18.4418 19.4109 18.678C19.1841 18.9146 19.0667 19.2353 19.0876 19.5626C19.1087 19.8896 19.2662 20.1926 19.5218 20.3981L20.4094 21.1465H20.4092C20.6457 21.3475 20.9526 21.4461 21.2618 21.4208C21.5711 21.3953 21.8577 21.2479 22.0582 21.0109C22.259 20.7741 22.3571 20.4672 22.331 20.1579C22.3049 19.8484 22.1571 19.5623 21.9198 19.3621L21.023 18.6022V18.6024C20.8164 18.4243 20.5541 18.3242 20.2814 18.3193L20.2816 18.319ZM14.8214 20.4043L14.8212 20.4048C14.4089 20.4111 14.0305 20.6343 13.8253 20.9921C13.6204 21.3498 13.619 21.789 13.8219 22.148L14.3834 23.1749H14.3831C14.5221 23.4628 14.7727 23.6813 15.077 23.7794C15.3811 23.8774 15.7123 23.8467 15.9931 23.6944C16.274 23.5418 16.4802 23.2808 16.5637 22.9723C16.6469 22.6638 16.6004 22.3345 16.4346 22.0614L15.8732 21.0348V21.0345C15.7736 20.8424 15.6223 20.6817 15.4366 20.5706C15.2507 20.4595 15.0379 20.4019 14.8212 20.4048L14.8214 20.4043ZM24.1446 22.0427L24.1444 22.0432C23.7923 22.0505 23.4624 22.2164 23.2463 22.4943C23.0301 22.7723 22.9511 23.1329 23.0309 23.4761L23.2726 24.6146H23.2729C23.3256 24.9278 23.5034 25.2061 23.7655 25.3852C24.0275 25.5646 24.3514 25.6293 24.6625 25.5649C24.9734 25.5002 25.2446 25.3119 25.4138 25.0431C25.583 24.7742 25.6355 24.4483 25.5591 24.1401L25.3173 22.9925C25.2654 22.721 25.1191 22.4769 24.9045 22.303C24.6899 22.1293 24.4205 22.0373 24.1444 22.0433L24.1446 22.0427ZM19.5903 23.738L19.59 23.7385C19.5496 23.738 19.5092 23.7393 19.4691 23.7429C19.2604 23.7619 19.0607 23.8368 18.8909 23.9596C18.7212 24.0827 18.5874 24.2488 18.5039 24.441L18.0294 25.5112C17.8919 25.7954 17.8752 26.1232 17.9832 26.4199C18.0912 26.7167 18.3146 26.9568 18.6028 27.0862C18.8909 27.2152 19.219 27.2225 19.5126 27.106C19.806 26.9894 20.0396 26.7589 20.1603 26.4671L20.6417 25.3993H20.642C20.8096 25.0386 20.7825 24.6175 20.5697 24.2816C20.357 23.9455 19.9877 23.7408 19.59 23.7382L19.5903 23.738Z"/>
</mask>
<path fill-rule="evenodd" clip-rule="evenodd" d="M20.5002 3.33563C20.0368 3.33563 19.5721 3.51061 19.2248 3.85821C18.5298 4.55314 18.5298 5.71203 19.2248 6.40696C19.2579 6.43799 19.2967 6.4638 19.332 6.49353V8.88474C17.1246 9.11343 15.1078 9.99063 13.4702 11.3193L11.7794 9.62847C11.7827 9.5818 11.7953 9.5372 11.7953 9.48949C11.7953 8.50663 10.9663 7.6868 9.9837 7.6868C9.00085 7.6868 8.18102 8.50663 8.18102 9.48949C8.18102 10.4723 9.00085 11.2898 9.9837 11.2898C10.0296 11.2898 10.0731 11.281 10.1183 11.2765L11.8182 12.9718C10.4886 14.6107 9.61111 16.629 9.38134 18.838H6.99921C6.96739 18.7984 6.94106 18.7595 6.9056 18.7241C6.21066 18.0291 5.05177 18.0291 4.35684 18.7241C3.66191 19.419 3.65744 20.5846 4.35215 21.2796C5.04708 21.9745 6.21037 21.9677 6.90531 21.2707C6.93582 21.2397 6.9572 21.205 6.9851 21.1726H9.38078C9.61234 23.3767 10.4909 25.3916 11.8176 27.0276L10.1177 28.7229C10.0726 28.7192 10.029 28.7096 9.98315 28.7096C9.0003 28.7096 8.18046 29.5294 8.18046 30.512C8.18046 31.4949 9.0003 32.3236 9.98315 32.3236C10.966 32.3236 11.7947 31.4946 11.7947 30.512C11.7947 30.4648 11.7825 30.4192 11.7788 30.373L13.4719 28.6799C15.1093 30.008 17.1245 30.8883 19.3313 31.1168V33.5036C19.2961 33.5346 19.2573 33.557 19.2242 33.5901C18.5292 34.2851 18.5224 35.4507 19.2171 36.1456C19.912 36.8406 21.0845 36.8406 21.7794 36.1456C22.4744 35.4507 22.4676 34.2851 21.7724 33.5901C21.74 33.5591 21.7017 33.5349 21.6676 33.5059V31.1124C23.871 30.8792 25.8852 30.0002 27.5202 28.6708L29.2201 30.3731C29.2168 30.4198 29.2066 30.4649 29.2066 30.5121C29.2066 31.4949 30.0332 32.3237 31.016 32.3237C31.9988 32.3237 32.8187 31.4947 32.8187 30.5121C32.8187 29.5292 31.9989 28.7094 31.016 28.7094C30.9686 28.7094 30.9234 28.7183 30.8768 28.7227L29.1701 27.016C30.4932 25.3823 31.3689 23.3715 31.6001 21.1725H34.0096C34.0381 21.2035 34.0605 21.2419 34.0918 21.2726C34.7867 21.9676 35.95 21.9721 36.6449 21.2771C37.3399 20.5822 37.3355 19.4165 36.6402 18.7216C35.9453 18.0267 34.7864 18.0267 34.0915 18.7216C34.056 18.7568 34.0297 18.798 33.9979 18.8355L31.6001 18.8361C31.3707 16.6323 30.4961 14.6179 29.1701 12.9811L30.8768 11.2744C30.9234 11.2778 30.9686 11.2877 31.016 11.2877C31.9989 11.2877 32.8187 10.4702 32.8187 9.48734C32.8187 8.50449 31.9989 7.68465 31.016 7.68465C30.0332 7.68465 29.2066 8.50449 29.2066 9.48734C29.2066 9.53506 29.216 9.57965 29.2201 9.62632L27.5202 11.3263C25.8852 9.99689 23.871 9.12045 21.6675 8.88707V6.48905C21.7017 6.45802 21.74 6.4369 21.7724 6.40482C22.4673 5.70989 22.4673 4.551 21.7724 3.85607C21.425 3.50847 20.9627 3.3335 20.4993 3.3335L20.5002 3.33563ZM20.4683 11.1615V11.1617C20.4902 11.163 20.5124 11.1638 20.5343 11.1641C22.859 11.1774 24.9621 12.0828 26.5306 13.5529C26.6318 13.7256 26.7755 13.8695 26.9484 13.9707C28.3575 15.4805 29.2384 17.4848 29.3122 19.7023C29.259 19.9002 29.259 20.1088 29.3122 20.307C29.2361 22.5462 28.3374 24.5659 26.9027 26.0799V26.0796C26.7731 26.1657 26.6623 26.2765 26.5762 26.4059C25.0268 27.8786 22.9443 28.7945 20.6393 28.8336C20.5864 28.8258 20.5329 28.8213 20.4795 28.8205C20.4359 28.8224 20.3927 28.8268 20.3496 28.8336C18.0309 28.7984 15.94 27.8766 14.3875 26.392V26.3923C14.3127 26.2875 14.2209 26.1957 14.116 26.1208C12.595 24.5338 11.6562 22.383 11.6562 20.0014C11.6562 17.6553 12.5686 15.5324 14.0498 13.9527V13.9525C14.2156 13.8534 14.3543 13.7144 14.4537 13.5485C16.0264 12.075 18.1342 11.1667 20.4683 11.1617L20.4683 11.1615ZM19.987 12.1174V12.1177C19.7773 12.1172 19.5713 12.173 19.3906 12.2793C19.2099 12.3857 19.0612 12.5388 18.9601 12.7224L18.3736 13.731V13.7307C18.2187 13.9999 18.1773 14.3196 18.2581 14.6192C18.3389 14.9188 18.5358 15.1741 18.8052 15.3285C19.0743 15.4831 19.394 15.5241 19.6936 15.4427C19.9933 15.3613 20.248 15.1642 20.4021 14.8946L20.9886 13.8862C21.1307 13.6487 21.1839 13.3686 21.1388 13.0956C21.0937 12.8225 20.9531 12.5746 20.7422 12.3954C20.5312 12.2163 20.2636 12.118 19.987 12.1177L19.987 12.1174ZM24.2309 13.8698L24.2307 13.87C23.9005 13.8698 23.5855 14.0093 23.3639 14.2541C23.142 14.4987 23.0343 14.826 23.0672 15.1545L23.1608 16.3184C23.1871 16.6274 23.335 16.9132 23.572 17.1129C23.8093 17.3129 24.116 17.4104 24.4249 17.3841C24.734 17.3578 25.0198 17.2096 25.2195 16.9726C25.4192 16.7353 25.5167 16.4286 25.4904 16.1197L25.3947 14.9558H25.3944C25.3736 14.6614 25.2422 14.3855 25.0262 14.1842C24.8103 13.9826 24.5261 13.8705 24.2309 13.87L24.2309 13.8698ZM14.5453 15.7567V15.757C14.1346 15.7862 13.7695 16.0289 13.5838 16.3961C13.3982 16.7635 13.419 17.2013 13.6391 17.5492C13.859 17.897 14.2457 18.1038 14.6569 18.0934H15.8321C16.2431 18.0843 16.6191 17.8595 16.822 17.502C17.0249 17.1442 17.0249 16.7064 16.822 16.3486C16.6191 15.9911 16.2431 15.7663 15.8321 15.7569H14.6569C14.6199 15.7554 14.5826 15.7554 14.5453 15.7569L14.5453 15.7567ZM27.024 17.8444L27.0237 17.8449C26.642 17.8655 26.2941 18.0715 26.0928 18.3969L25.4631 19.3873H25.4633C25.2962 19.6494 25.2401 19.967 25.3079 20.2705C25.3755 20.5738 25.5611 20.8377 25.8237 21.0038C26.0866 21.1701 26.4045 21.2249 26.7074 21.156C27.0107 21.0872 27.2738 20.9007 27.4392 20.6376L28.0689 19.6475V19.6472C28.2262 19.4047 28.2882 19.1124 28.2426 18.8271C28.197 18.5416 28.047 18.2832 27.822 18.1017C27.5969 17.9202 27.3124 17.8287 27.0238 17.8448L27.024 17.8444ZM20.2816 18.319L20.2814 18.3195C19.9539 18.3117 19.6381 18.4418 19.4109 18.678C19.1841 18.9146 19.0667 19.2353 19.0876 19.5626C19.1087 19.8896 19.2662 20.1926 19.5218 20.3981L20.4094 21.1465H20.4092C20.6457 21.3475 20.9526 21.4461 21.2618 21.4208C21.5711 21.3953 21.8577 21.2479 22.0582 21.0109C22.259 20.7741 22.3571 20.4672 22.331 20.1579C22.3049 19.8484 22.1571 19.5623 21.9198 19.3621L21.023 18.6022V18.6024C20.8164 18.4243 20.5541 18.3242 20.2814 18.3193L20.2816 18.319ZM14.8214 20.4043L14.8212 20.4048C14.4089 20.4111 14.0305 20.6343 13.8253 20.9921C13.6204 21.3498 13.619 21.789 13.8219 22.148L14.3834 23.1749H14.3831C14.5221 23.4628 14.7727 23.6813 15.077 23.7794C15.3811 23.8774 15.7123 23.8467 15.9931 23.6944C16.274 23.5418 16.4802 23.2808 16.5637 22.9723C16.6469 22.6638 16.6004 22.3345 16.4346 22.0614L15.8732 21.0348V21.0345C15.7736 20.8424 15.6223 20.6817 15.4366 20.5706C15.2507 20.4595 15.0379 20.4019 14.8212 20.4048L14.8214 20.4043ZM24.1446 22.0427L24.1444 22.0432C23.7923 22.0505 23.4624 22.2164 23.2463 22.4943C23.0301 22.7723 22.9511 23.1329 23.0309 23.4761L23.2726 24.6146H23.2729C23.3256 24.9278 23.5034 25.2061 23.7655 25.3852C24.0275 25.5646 24.3514 25.6293 24.6625 25.5649C24.9734 25.5002 25.2446 25.3119 25.4138 25.0431C25.583 24.7742 25.6355 24.4483 25.5591 24.1401L25.3173 22.9925C25.2654 22.721 25.1191 22.4769 24.9045 22.303C24.6899 22.1293 24.4205 22.0373 24.1444 22.0433L24.1446 22.0427ZM19.5903 23.738L19.59 23.7385C19.5496 23.738 19.5092 23.7393 19.4691 23.7429C19.2604 23.7619 19.0607 23.8368 18.8909 23.9596C18.7212 24.0827 18.5874 24.2488 18.5039 24.441L18.0294 25.5112C17.8919 25.7954 17.8752 26.1232 17.9832 26.4199C18.0912 26.7167 18.3146 26.9568 18.6028 27.0862C18.8909 27.2152 19.219 27.2225 19.5126 27.106C19.806 26.9894 20.0396 26.7589 20.1603 26.4671L20.6417 25.3993H20.642C20.8096 25.0386 20.7825 24.6175 20.5697 24.2816C20.357 23.9455 19.9877 23.7408 19.59 23.7382L19.5903 23.738Z" fill="url(#paint0_linear_330_2212)" stroke="url(#paint1_linear_330_2212)" stroke-width="2" mask="url(#path-1-inside-1_330_2212)"/>
<defs>
<linearGradient id="paint0_linear_330_2212" x1="0.214151" y1="36.6668" x2="41.5671" y2="33.6452" gradientUnits="userSpaceOnUse">
<stop stop-color="#6B4DE0"/>
<stop offset="0.544792" stop-color="#9C42E3"/>
<stop offset="1" stop-color="#C339E5"/>
</linearGradient>
<linearGradient id="paint1_linear_330_2212" x1="0.214151" y1="36.6668" x2="41.5671" y2="33.6452" gradientUnits="userSpaceOnUse">
<stop stop-color="#6B4DE0"/>
<stop offset="0.544792" stop-color="#9C42E3"/>
<stop offset="1" stop-color="#C339E5"/>
</linearGradient>
</defs>
</svg>
