<svg width="16" height="16" viewBox="0 0 16 16" fill="none" xmlns="http://www.w3.org/2000/svg">
<path d="M4.29597 1.33203C2.65452 1.33203 1.33301 2.65354 1.33301 4.29499V14.6654H11.7034C13.3448 14.6654 14.6663 13.3439 14.6663 11.7024V4.29499C14.6663 2.65354 13.3448 1.33203 11.7034 1.33203H4.29597ZM7.99967 3.55425C8.39258 3.55425 8.76946 3.7103 9.04724 3.98817C9.32512 4.26595 9.48116 4.64283 9.48116 5.03574C9.48116 5.42865 9.32511 5.80552 9.04724 6.0833C8.76946 6.36119 8.39258 6.51722 7.99967 6.51722C7.60676 6.51722 7.22989 6.36117 6.95211 6.0833C6.67423 5.80552 6.51819 5.42865 6.51819 5.03574C6.51819 4.64283 6.67424 4.26595 6.95211 3.98817C7.22989 3.71029 7.60676 3.55425 7.99967 3.55425ZM7.25893 7.25796H8.74042C9.15079 7.25796 9.48116 7.58833 9.48116 7.9987V11.7024C9.48116 12.1128 9.15079 12.4431 8.74042 12.4431H7.25893C6.84856 12.4431 6.51819 12.1128 6.51819 11.7024V7.9987C6.51819 7.58833 6.84856 7.25796 7.25893 7.25796Z" fill="white"/>
<path d="M7.25893 7.25796H8.74042C9.15079 7.25796 9.48116 7.58833 9.48116 7.9987V11.7024C9.48116 12.1128 9.15079 12.4431 8.74042 12.4431H7.25893C6.84856 12.4431 6.51819 12.1128 6.51819 11.7024V7.9987C6.51819 7.58833 6.84856 7.25796 7.25893 7.25796Z" fill="white"/>
<path d="M7.99967 3.55425C8.39258 3.55425 8.76946 3.7103 9.04724 3.98817C9.32512 4.26595 9.48116 4.64283 9.48116 5.03574C9.48116 5.42865 9.32511 5.80552 9.04724 6.0833C8.76946 6.36119 8.39258 6.51722 7.99967 6.51722C7.60676 6.51722 7.22989 6.36117 6.95211 6.0833C6.67423 5.80552 6.51819 5.42865 6.51819 5.03574C6.51819 4.64283 6.67424 4.26595 6.95211 3.98817C7.22989 3.71029 7.60676 3.55425 7.99967 3.55425Z" fill="white"/>
<path d="M4.29597 1.33203C2.65452 1.33203 1.33301 2.65354 1.33301 4.29499V14.6654H11.7034C13.3448 14.6654 14.6663 13.3439 14.6663 11.7024V4.29499C14.6663 2.65354 13.3448 1.33203 11.7034 1.33203H4.29597ZM7.99967 3.55425C8.39258 3.55425 8.76946 3.7103 9.04724 3.98817C9.32512 4.26595 9.48116 4.64283 9.48116 5.03574C9.48116 5.42865 9.32511 5.80552 9.04724 6.0833C8.76946 6.36119 8.39258 6.51722 7.99967 6.51722C7.60676 6.51722 7.22989 6.36117 6.95211 6.0833C6.67423 5.80552 6.51819 5.42865 6.51819 5.03574C6.51819 4.64283 6.67424 4.26595 6.95211 3.98817C7.22989 3.71029 7.60676 3.55425 7.99967 3.55425ZM7.25893 7.25796H8.74042C9.15079 7.25796 9.48116 7.58833 9.48116 7.9987V11.7024C9.48116 12.1128 9.15079 12.4431 8.74042 12.4431H7.25893C6.84856 12.4431 6.51819 12.1128 6.51819 11.7024V7.9987C6.51819 7.58833 6.84856 7.25796 7.25893 7.25796Z" fill="#4D1C8C"/>
</svg>
